<svg version="1" xmlns="http://www.w3.org/2000/svg" width="346.667" height="346.667" viewBox="0 0 260.000000 260.000000"><path d="M128.8 42.5c-.1.1-2.3.5-4.8.8-4.9.6-6.3 1-13 4-10 4.4-18.8 14-22.8 24.9-.8 2.4-1.6 8.1-1.7 12.7-.7 24.8 17.5 42.9 44.8 44.4 14 .8 25.1-3.6 35.4-14 3.5-3.5 6.3-7 6.3-7.7 0-.7-1.8-2.6-4-4.1l-4.1-2.8-1.7 2.4c-3.9 5.6-9.5 10.7-14.4 13.2-13.5 6.8-30.1.2-37-14.8-1.9-4.2-2.3-6.7-2.3-15.5 0-9.9.2-11 3.3-17.2 9.6-19.5 31.8-21.2 47.4-3.8l5.2 5.8 4.3-3 4.3-2.9-2.2-3.2c-8.6-12.1-20.2-18.3-35.6-19.2-3.8-.2-7.2-.2-7.4 0zM156.8 139.6c-.2.1-3.7.5-7.8.8-28 2.3-66.7 11.3-63.3 14.7 2.8 2.8 38.9-.4 63.3-5.6 4.1-.9 8.3-1.8 9.4-2 6.1-1.3 12.7-3.7 14.7-5.5 1.8-1.4 2-2 .9-2.1-3-.3-17-.6-17.2-.3zM140.3 161.1c-28.3 3.7-50.1 8.7-54.2 12.5-1.1 1-.8 1.4 2.3 1.9 4.1.8 20.9 0 31.8-1.5 4-.6 9.1-1.3 11.3-1.6 8-1.1 28.2-5.4 34.6-7.4 7.3-2.2 10.3-4.4 7.2-5.4-3.3-1-19.6-.2-33 1.5zM141.5 180.7c-4.4.6-10 1.4-12.5 1.8-2.5.3-6.1.8-8 1.1-7.5 1.1-24.8 5.3-30.2 7.4-10 3.7-7.2 5 9.5 4.4 6.1-.2 12.1-.5 13.2-.8 1.1-.2 5.2-.7 9-1.2 3.9-.4 7.2-.9 7.5-.9.3-.1 2.8-.5 5.5-1 12-1.9 22.8-4.3 30.5-6.7 13-4.1 11.4-6-5-5.6-6.3.2-15.1.8-19.5 1.5zM130.5 197.6c-6.4 2.2-9 6.7-7.1 12.4 2.6 8 15.4 10 21.7 3.4 2.7-2.8 3.1-9.2.9-12-3.5-4.1-10-5.7-15.5-3.8z"/></svg>